<?xml version="1.0" encoding="utf-8"?>
<!-- Generator: Adobe Illustrator 28.0.0, SVG Export Plug-In . SVG Version: 6.00 Build 0)  -->
<svg version="1.1" id="Layer_1" xmlns="http://www.w3.org/2000/svg" xmlns:xlink="http://www.w3.org/1999/xlink" x="0px" y="0px"
	 viewBox="0 0 32 32" style="enable-background:new 0 0 32 32;" xml:space="preserve">
<style type="text/css">
	.st0{fill:#FFFFFF;}
	.st1{fill-rule:evenodd;clip-rule:evenodd;fill:#0556A4;}
	.st2{fill:none;stroke:#0357A3;stroke-miterlimit:2.6132;}
</style>
<g>
	<ellipse class="st0" cx="16" cy="16" rx="16" ry="16"/>
	<g>
		<path class="st1" d="M25,23.5v-1.9c-1,0-1.5,0-2.4-0.3c-0.7-0.2-1.2-0.6-1.7-1c-0.8-0.6-1.7-1.8-2-3.4h4.4V15h-4.4
			c0.3-2.1,1.9-3.7,3.7-4.3c0.9-0.3,1.4-0.3,2.4-0.3V8.5c-1.2-0.1-2.3,0.1-3.3,0.5c-0.5,0.2-0.9,0.4-1.3,0.7s-0.7,0.5-1.1,0.9
			L18.9,11c-0.6,0.6-0.9,1-1.3,1.9c-0.9,2-1,4.4,0,6.4c0.4,0.8,0.8,1.4,1.4,2C20.4,22.8,22.8,23.8,25,23.5"/>
		<path class="st1" d="M15.1,23.5v-2c-1.8,0.1-3.1-0.4-4.4-1.5c-0.4-0.4-1-1.1-1.2-1.7C9.2,17.7,9,16.9,9,16c0-3.2,2.7-5.9,6.1-5.6
			c0-0.2,0-1.9,0-2c-4.5-0.3-8,3.3-8,7.5c0,1.6,0.5,3.2,1.4,4.4c0.2,0.3,0.6,0.8,0.9,1C11,23,12.8,23.6,15.1,23.5"/>
	</g>
</g>
<ellipse class="st2" cx="16" cy="16" rx="15.1" ry="15.1"/>
</svg>
