<?xml version="1.0" encoding="utf-8"?>
<!-- Generator: Adobe Illustrator 27.9.0, SVG Export Plug-In . SVG Version: 6.00 Build 0)  -->
<svg version="1.1" id="Layer_1" xmlns="http://www.w3.org/2000/svg" xmlns:xlink="http://www.w3.org/1999/xlink" x="0px" y="0px"
	 viewBox="0 0 32 32" style="enable-background:new 0 0 32 32;" xml:space="preserve">
<style type="text/css">
	.st0{fill:#FFFFFF;}
	.st1{fill-rule:evenodd;clip-rule:evenodd;fill:#0556A4;}
	.st2{fill-rule:evenodd;clip-rule:evenodd;fill:#0357A3;}
	.st3{fill:none;stroke:#FFFFFF;stroke-width:0.4861;stroke-miterlimit:2.6131;}
	.st4{fill-rule:evenodd;clip-rule:evenodd;fill:#FFFFFF;}
	.st5{fill:#0357A3;}
</style>
<g>
	<circle class="st2" cx="16" cy="16" r="15.2"/>
	<circle class="st3" cx="16" cy="16" r="15.2"/>
	<path class="st4" d="M16,1.9c7.8,0,14.1,6.3,14.1,14.1c0,7.8-6.3,14.1-14.1,14.1S1.9,23.8,1.9,16C1.9,8.2,8.2,1.9,16,1.9"/>
	<path class="st2" d="M16,8.6c4.1,0,7.4,3.3,7.4,7.4c0,4.1-3.3,7.4-7.4,7.4S8.6,20.1,8.6,16C8.6,11.9,11.9,8.6,16,8.6"/>
	<rect x="0.4" y="10.9" class="st2" width="31.3" height="10.2"/>
	<rect x="0.4" y="10.9" class="st3" width="31.3" height="10.2"/>
	<path class="st4" d="M9.8,16.6c0.4,0,0.8,0,1.3,0c0-0.2-0.1-0.5-0.2-0.5l-0.3-0.8c0,0,0-0.1,0-0.1c-0.1-0.3,0-0.3-0.1-0.3l-0.3,0.8
		C10.1,15.9,9.8,16.5,9.8,16.6 M8.9,18.9c0.1-0.2,0.1-0.3,0.2-0.5c0-0.2,0.1-0.4,0.2-0.6c0.2,0,0.4,0,0.5,0l1.6,0
		c0.2,0.3,0.2,0.8,0.4,1.1h1.4c0,0,0-0.1-0.1-0.1l-0.4-1.1c0-0.1,0-0.1-0.1-0.2c-0.1-0.2-0.1-0.2-0.2-0.4l-1.1-2.9
		c-0.1-0.2-0.1-0.2-0.1-0.4L11,13.1c-0.1,0-1.1,0-1.2,0c-0.1,0.1-0.1,0.2-0.2,0.3c-0.6,1.5-1.9,5-2,5.5H8.9z"/>
	<path class="st4" d="M5.4,14.4c0,0.4,0,0.8,0,1v0H3.5v-2.2c0,0,0-0.1,0-0.1l-1.2,0c-0.2,0,0.1,0-0.1,0l0,0v5.8h1.3v-2.3h1.9v0.1
		l0,2.3h1.3v-5.8c-0.2,0-0.4,0-0.6,0c-0.2,0-0.4,0-0.7,0V14.4z"/>
	<path class="st4" d="M27.1,14.1c-0.1,0.2,0,0.6,0,0.8l0,0.8c0.3,0,0.9,0,1.1-0.2c0.2-0.1,0.3-0.2,0.3-0.6c0-0.2,0-0.3-0.1-0.5
		c0,0,0,0,0,0c-0.1-0.2-0.4-0.3-0.7-0.3C27.4,14.1,27.2,14.1,27.1,14.1 M25.7,13l0,0.7c0,0.1,0,0.2,0,0.4c0,1.5,0,3.3,0,4.8h1.3
		c0-0.5,0-1.9,0-2.2c0.8,0,1.7,0.1,2.3-0.6c0.8-1.1,0.5-2.7-1-3C27.2,12.9,25.7,13,25.7,13z"/>
	<path class="st4" d="M24.1,17.4c-0.1,0-0.1,0-0.2,0.1c-0.1,0.1-0.3,0.1-0.4,0.2c-0.1,0-0.1,0.1-0.2,0.1c-0.8,0.1-1.4-0.2-1.9-0.7
		c0,0,0,0,0,0l-0.1-0.2c-0.1-0.2-0.1-0.4-0.1-0.6c0-1.3,1.5-2.2,2.5-1.7c0.1,0,0.1,0.1,0.2,0.1l0.2,0.1c0.2-0.2,0.3-0.5,0.4-0.8
		c0,0,0,0,0,0c0-0.1,0.1-0.2,0.1-0.3l-0.1-0.1c0,0,0,0,0,0c0,0,0,0,0,0l-0.3-0.1c-2-0.8-4.4,0.2-4.6,2.5c0,0.1,0,0.2,0,0.3l0.1,0.5
		c0.1,0.2,0.1,0.5,0.2,0.6c0.7,1.4,2.2,2.1,3.7,1.7c0.2,0,0.9-0.2,1-0.4c0.1-0.1-0.1-0.3-0.1-0.4L24.1,17.4z"/>
	<path class="st4" d="M18.8,18.5L18.6,18c0,0,0,0,0,0l-0.2-0.5c0-0.1-0.1-0.1-0.1-0.1l-0.4,0.2c-0.1,0.1-0.3,0.1-0.5,0.1
		c-0.3,0.1-0.9,0-1.1-0.1c-0.1,0-0.1-0.1-0.2-0.1L16,17.4c-0.2-0.2-0.2-0.1-0.3-0.3c0,0,0-0.1-0.1-0.1c-0.1-0.1-0.2-0.3-0.2-0.4
		l-0.1-0.2c0-0.1,0-0.2,0-0.3c0-0.5,0.1-0.9,0.5-1.3c0,0,0,0,0,0l0.3-0.2c0.5-0.3,1.1-0.3,1.7-0.1l0.4,0.2c0.2-0.1,0.3-0.6,0.4-0.8
		c0.1-0.1,0.1-0.1,0.1-0.3c-3.2-1.5-6.2,1.1-4.5,4.1c0.1,0.1,0.1,0.2,0.2,0.3l0.1,0.1c0,0,0.1,0.1,0.1,0.1c0.8,0.8,2.5,1.1,3.5,0.6
		c0.1,0,0.1-0.1,0.2-0.1C18.6,18.6,18.7,18.6,18.8,18.5"/>
	<path class="st5" d="M23.4,8.8c0.2-0.2,0.2-0.3,0.2-0.5c0-0.2-0.1-0.4-0.3-0.5l-0.2-0.2l-1.1,1.1l0.2,0.2C22.5,9,22.7,9,22.9,9
		C23.1,9,23.3,8.9,23.4,8.8 M23.8,9.2c-0.3,0.3-0.6,0.4-0.9,0.4c-0.3,0-0.6-0.1-0.9-0.4l-0.6-0.6l1.7-1.7l0.6,0.6
		C24.4,8,24.4,8.6,23.8,9.2z M21.1,8.4l-1.2-0.7l1.2-2.1l1.2,0.7l-0.2,0.4l-0.7-0.4l-0.3,0.5l0.7,0.4l-0.2,0.4L20.8,7l-0.3,0.5
		L21.3,8L21.1,8.4z M19.3,7.4l-0.5-0.2L19.7,5l0.5,0.2L19.3,7.4z M18.8,5.2L18,5l-0.1,0.6l0.8,0.2l-0.1,0.4L17.8,6l-0.2,0.9
		l-0.5-0.1l0.5-2.4l1.4,0.3L18.8,5.2z M16.6,6.8l-0.5,0l0.2-2.4l0.5,0L16.6,6.8z M15.5,4.7l-0.7,0.1l0.2,2l-0.5,0l-0.2-2l-0.7,0.1
		l0-0.4l1.9-0.2L15.5,4.7z M12.6,5.5c-0.1-0.2-0.2-0.3-0.5-0.2l-0.2,0.1L12.1,6L12.3,6c0.1,0,0.2-0.1,0.2-0.2
		C12.6,5.7,12.6,5.6,12.6,5.5z M13.7,6.9l-0.6,0.2l-0.4-0.5c-0.1-0.2-0.3-0.2-0.4-0.2l-0.1,0l0.3,0.9L12,7.5l-0.8-2.3L12,4.9
		c0.6-0.2,0.9-0.1,1,0.3c0.1,0.2,0.1,0.3,0,0.5C13,5.9,12.9,6,12.8,6.1l0,0c0.1,0,0.3,0.1,0.4,0.2L13.7,6.9z M11.6,7.7l-1.2,0.8
		l-1.3-2l1.2-0.8L10.5,6L9.8,6.5L10.1,7l0.7-0.4L11,6.9l-0.7,0.4l0.3,0.5l0.8-0.5L11.6,7.7z M10,8.6C9.9,8.8,9.8,9,9.6,9.2
		C9.4,9.5,9.1,9.7,8.8,9.7C8.5,9.7,8.2,9.6,8,9.3C7.7,9.1,7.5,8.8,7.5,8.5c0-0.3,0.1-0.6,0.3-0.9C8,7.4,8.1,7.2,8.3,7.1l0.4,0.3
		C8.5,7.5,8.3,7.7,8.2,7.8C8.1,8,8,8.1,8,8.3c0,0.2,0.1,0.4,0.3,0.6C8.5,9,8.7,9.1,8.9,9.1C9,9.1,9.2,9,9.4,8.8
		c0.1-0.2,0.2-0.3,0.3-0.5L10,8.6z"/>
	<path class="st5" d="M24.6,21.6l0.6,1.5l0.6,0.5L25.5,24l-0.6-0.5l-1.6-0.4l0.4-0.4l0.9,0.3c0,0,0.1,0,0.2,0.1l0,0
		c0-0.1-0.1-0.1-0.1-0.2L24.3,22L24.6,21.6z M23.7,23.3l-0.5,0.4l1.1,1.5l-0.4,0.3L22.7,24l-0.5,0.4l-0.3-0.3l1.5-1.1L23.7,23.3z
		 M22.9,26.1l-1.2,0.6l-1-2.1l1.2-0.6l0.2,0.4l-0.7,0.4l0.2,0.5l0.7-0.3l0.2,0.4l-0.7,0.3l0.2,0.5l0.8-0.4L22.9,26.1z M20.5,25.2
		l-0.8,0.3l0.2,0.5l0.7-0.2l0.1,0.4L20,26.4l0.3,0.8l-0.5,0.2l-0.7-2.2l1.3-0.4L20.5,25.2z M18.3,26.9L18,26.1
		c0-0.1-0.1-0.1-0.1-0.2l0,0c0,0.1,0,0.1,0,0.2L17.7,27L18.3,26.9z M19.3,27.6l-0.6,0.1l-0.2-0.5l-0.8,0.1l-0.1,0.5L17,28l0.5-2.4
		l0.6-0.1L19.3,27.6z M16.7,27.4c0,0.2-0.1,0.3-0.2,0.5c-0.2,0.1-0.4,0.2-0.7,0.2c-0.2,0-0.4,0-0.6-0.1l0-0.5
		c0.2,0.2,0.4,0.2,0.6,0.2c0.1,0,0.2,0,0.3-0.1c0,0,0.1-0.1,0.1-0.2c0-0.1,0-0.1-0.1-0.2c-0.1,0-0.2-0.1-0.3-0.2
		c-0.4-0.2-0.5-0.4-0.5-0.7c0-0.2,0.1-0.4,0.2-0.5c0.2-0.1,0.4-0.2,0.6-0.2c0.2,0,0.4,0,0.6,0.1l0,0.5c-0.2-0.1-0.3-0.2-0.5-0.2
		c-0.1,0-0.2,0-0.2,0.1c-0.1,0-0.1,0.1-0.1,0.2c0,0.1,0,0.1,0.1,0.2c0,0,0.1,0.1,0.3,0.2c0.2,0.1,0.4,0.2,0.4,0.3
		C16.6,27.1,16.7,27.2,16.7,27.4z M13.4,26.7c0-0.2,0-0.4-0.1-0.5c-0.1-0.2-0.3-0.3-0.5-0.3l-0.2-0.1l-0.3,1.4l0.3,0.1
		c0.2,0,0.4,0,0.6-0.1C13.3,27.1,13.4,26.9,13.4,26.7z M14,26.8c-0.1,0.4-0.2,0.6-0.5,0.8c-0.3,0.2-0.6,0.2-0.9,0.1l-0.8-0.2
		l0.5-2.3l0.8,0.2C13.8,25.6,14.1,26.1,14,26.8z M11.1,26.1c0.1-0.2,0.1-0.4,0.1-0.6c0-0.2-0.1-0.3-0.3-0.4c-0.2-0.1-0.3-0.1-0.5,0
		c-0.2,0.1-0.3,0.2-0.4,0.4C9.9,25.8,9.9,26,10,26.1c0,0.2,0.1,0.3,0.3,0.3c0.2,0.1,0.3,0.1,0.5,0C10.9,26.4,11,26.3,11.1,26.1z
		 M11.6,26.3c-0.2,0.3-0.4,0.5-0.7,0.7c-0.3,0.1-0.6,0.1-0.9-0.1c-0.3-0.1-0.5-0.4-0.6-0.6c-0.1-0.3-0.1-0.6,0.1-0.9
		c0.2-0.3,0.4-0.5,0.7-0.7c0.3-0.1,0.6-0.1,0.9,0.1c0.3,0.1,0.5,0.4,0.6,0.6C11.8,25.7,11.7,26,11.6,26.3z M9,24.9
		c0.2-0.2,0.2-0.4,0.3-0.5c0-0.2-0.1-0.3-0.2-0.4c-0.1-0.1-0.3-0.2-0.5-0.1c-0.2,0-0.3,0.1-0.5,0.3c-0.2,0.2-0.2,0.4-0.2,0.5
		c0,0.2,0.1,0.3,0.2,0.4c0.1,0.1,0.3,0.2,0.4,0.1C8.6,25.1,8.8,25,9,24.9z M9.4,25.2c-0.2,0.3-0.5,0.4-0.8,0.5
		c-0.3,0-0.6-0.1-0.8-0.3c-0.2-0.2-0.4-0.5-0.4-0.8c0-0.3,0.1-0.6,0.3-0.8c0.2-0.3,0.5-0.4,0.8-0.5c0.3,0,0.6,0.1,0.9,0.3
		c0.2,0.2,0.4,0.5,0.4,0.8C9.7,24.7,9.6,24.9,9.4,25.2z M8.1,23.1l-0.5-0.6l-0.4,0.3l0.5,0.6l-0.3,0.3L6.8,23l-0.7,0.5l-0.3-0.4
		l1.8-1.4l0.8,1.1L8.1,23.1z"/>
</g>
</svg>
