<?xml version="1.0" encoding="utf-8"?>
<!-- Generator: Adobe Illustrator 27.9.0, SVG Export Plug-In . SVG Version: 6.00 Build 0)  -->
<svg version="1.1" id="Layer_1" xmlns="http://www.w3.org/2000/svg" xmlns:xlink="http://www.w3.org/1999/xlink" x="0px" y="0px"
	 viewBox="0 0 32 32" style="enable-background:new 0 0 32 32;" xml:space="preserve">
<style type="text/css">
	.st0{fill:#FFFFFF;}
	.st1{fill-rule:evenodd;clip-rule:evenodd;fill:#0556A4;}
	.st2{fill-rule:evenodd;clip-rule:evenodd;fill:#0357A3;}
	.st3{fill:none;stroke:#FFFFFF;stroke-width:0.4861;stroke-miterlimit:2.6131;}
	.st4{fill-rule:evenodd;clip-rule:evenodd;fill:#FFFFFF;}
	.st5{fill:#0357A3;}
	.st6{fill:none;stroke:#0357A3;stroke-width:0.4897;stroke-miterlimit:2.6131;}
	.st7{fill:none;stroke:#FFFFFF;stroke-width:0.2879;stroke-miterlimit:2.6131;}
</style>
<g>
	<ellipse transform="matrix(0.9239 -0.3827 0.3827 0.9239 -4.905 7.3408)" class="st0" cx="16" cy="16" rx="15.1" ry="15.1"/>
	<ellipse transform="matrix(0.9239 -0.3827 0.3827 0.9239 -4.905 7.3408)" class="st6" cx="16" cy="16" rx="15.1" ry="15.1"/>
	<path class="st5" d="M26.3,16c0,5.7-4.6,10.3-10.3,10.3c-5.7,0-10.3-4.6-10.3-10.3c0-5.7,4.6-10.3,10.3-10.3
		C21.7,5.7,26.3,10.3,26.3,16"/>
	<path class="st0" d="M21.1,15.4L21.1,15.4c0,0.2-0.2,0.3-0.3,0.4c-0.3,0.1-0.7,0.1-0.9-0.1c-0.2-0.2-0.3-0.4-0.3-0.7
		c0-0.5-0.1-1,0.1-1.4c0.1-0.3,0.4-0.3,0.7-0.4c0.3,0,0.6,0,0.7,0.3c0.1,0.2,0.1,0.4,0.1,0.6C21.1,14.6,21.1,15,21.1,15.4
		 M22.8,13.4c-0.1-0.3-0.4-0.6-0.7-0.9c-0.9-0.6-2.3-0.6-3.3-0.1c-0.5,0.3-0.9,0.8-1,1.3c-0.2,0.9-0.1,2,0.5,2.6
		c0.8,0.7,2,0.9,3,0.6c0,0,0.2,0,0.3-0.1l0,0c0.3-0.1,0.6-0.4,0.9-0.6C23,15.5,23.1,14.3,22.8,13.4z"/>
	<path class="st0" d="M12.6,15.9c-0.2,0-0.5,0-0.7,0l0-2.5l0,0l0.7,0c0-0.4,0-0.8,0-1.2l-2.7,0l-0.4,0c0,0.4,0,0.8,0,1.2
		c0.2,0,0.5,0,0.7,0v2.4l0,0.1l-0.7,0c0,0.4,0,0.8,0,1.2h3.2V15.9z"/>
	<path class="st0" d="M17.9,19.6L17.9,19.6l-0.3,0.1c-0.1,0-0.1-0.1-0.2-0.1l0,0c0.5-0.3,0.9-0.6,1.3-1c0.2,0.1,0.4,0.2,0.6,0.3
		C18.8,19.2,18.3,19.4,17.9,19.6 M17.2,19.8L17.2,19.8c-0.8,0.2-1.6,0.2-2.4,0c0,0,0,0,0.1-0.1C15.5,19.3,16.6,19.3,17.2,19.8
		C17.3,19.8,17.2,19.8,17.2,19.8z M14.5,19.7L14.5,19.7c-0.6-0.2-1.2-0.4-1.7-0.8v0c0.2-0.1,0.3-0.2,0.5-0.3c0.4,0.4,0.8,0.7,1.3,1
		C14.6,19.6,14.6,19.7,14.5,19.7z M13.6,18.5L13.6,18.5c0.3-0.1,0.6-0.2,0.9-0.3l0,0c0.2,0.4,0.5,0.8,0.7,1.1
		c-0.1,0.1-0.2,0.1-0.3,0.1C14.4,19.2,14,18.9,13.6,18.5L13.6,18.5z M14.8,18.1L14.8,18.1c0.4-0.1,0.8-0.1,1.2-0.1l0,1.2
		c-0.2,0-0.3,0-0.5,0.1C15.2,18.9,14.9,18.5,14.8,18.1L14.8,18.1z M16.1,18L16.1,18c0.4,0,0.8,0,1.2,0.1l0,0
		c-0.2,0.4-0.5,0.7-0.7,1.1c-0.1,0-0.2,0-0.4,0l-0.1,0C16.1,18.8,16.1,18.4,16.1,18z M17.5,18.2L17.5,18.2L17.5,18.2
		c0.3,0.1,0.6,0.2,0.9,0.3c-0.2,0.3-0.5,0.5-0.8,0.7c-0.2,0.1-0.3,0.2-0.5,0.3l-0.3-0.1l0,0C17.1,18.9,17.3,18.6,17.5,18.2z
		 M20.5,17.6c-0.3,0.4-0.7,0.8-1.1,1.2c0,0-0.1,0-0.1,0c-0.2-0.1-0.4-0.2-0.5-0.3c0.2-0.3,0.5-0.5,0.6-0.9h-0.2
		c-0.2,0.3-0.4,0.5-0.6,0.8c-0.3-0.1-0.6-0.2-0.9-0.3l0,0c0-0.1,0.1-0.3,0.2-0.4h-0.2l-0.2,0.4c-0.4-0.1-0.9-0.1-1.3-0.2
		c0-0.1,0-0.2,0-0.2h-0.2c0,0.1,0,0.1,0,0.2c-0.4,0-0.9,0.1-1.3,0.2l-0.2-0.4c-0.1,0-0.2,0-0.2,0l0.2,0.4l0,0
		c-0.3,0.1-0.6,0.2-0.9,0.3l0,0c-0.2-0.2-0.4-0.5-0.6-0.7c0-0.1-0.2,0-0.3-0.1c0.2,0.3,0.4,0.6,0.6,0.9c-0.2,0.1-0.4,0.2-0.6,0.3
		c-0.4-0.3-0.8-0.7-1.1-1.2c-0.1,0-0.1,0-0.2,0c0.5,0.8,1.3,1.5,2.2,1.9c0,0,0,0,0,0c0,0,0,0,0,0c0.6,0.3,1.2,0.5,1.8,0.6
		c2.2,0.3,4.3-0.6,5.5-2.5C20.7,17.6,20.6,17.6,20.5,17.6z"/>
	<path class="st0" d="M12.8,10.3L12.8,10.3c0.5-0.3,1-0.6,1.5-0.7c0,0,0,0,0.1,0v0c0.1,0,0.1,0,0.2,0c0,0,0.1,0.1,0.1,0.1
		c-0.4,0.3-0.9,0.6-1.3,1C13.2,10.6,13,10.4,12.8,10.3L12.8,10.3z M17.2,9.4L17.2,9.4L17.2,9.4c-0.6,0.5-1.6,0.5-2.3,0.1
		c0,0-0.1,0-0.1-0.1C15.5,9.3,16.4,9.2,17.2,9.4z M17.5,9.5L17.5,9.5c0.6,0.2,1.2,0.4,1.7,0.8l0,0l-0.5,0.3h0
		c-0.4-0.4-0.8-0.7-1.3-1C17.4,9.6,17.4,9.5,17.5,9.5z M18.4,10.7L18.4,10.7c-0.3,0.1-0.6,0.2-0.9,0.3c-0.2-0.4-0.5-0.7-0.7-1.1
		c0.1-0.1,0.2-0.1,0.3-0.2C17.6,10,18,10.3,18.4,10.7L18.4,10.7z M16.1,11.2L16.1,11.2c0-0.4,0-0.8,0-1.2c0.1,0,0.3,0,0.4-0.1
		c0.3,0.4,0.6,0.7,0.7,1.1C16.9,11.2,16.5,11.2,16.1,11.2z M15.9,11.2L15.9,11.2c-0.2,0-0.4,0-0.6,0c-0.2,0-0.4,0-0.6-0.1
		c0.2-0.4,0.5-0.8,0.7-1.1l0.5,0.1C15.9,10.4,15.9,10.8,15.9,11.2z M14.5,11L14.5,11L14.5,11c-0.3-0.1-0.6-0.2-0.9-0.3l0,0
		c0.4-0.4,0.8-0.7,1.3-0.9c0.1,0,0.2,0.1,0.3,0.1l0,0.1C14.9,10.3,14.7,10.6,14.5,11z M11.5,11.6c0.2-0.2,0.4-0.5,0.6-0.7
		c0.2-0.2,0.4-0.3,0.6-0.5c0.2,0.1,0.4,0.2,0.6,0.3c-0.2,0.3-0.5,0.5-0.6,0.8c0,0,0.1,0,0.2,0c0.2-0.3,0.4-0.5,0.6-0.8
		c0.3,0.1,0.6,0.2,0.9,0.3l0,0l-0.2,0.4c0.1,0,0.1,0,0.2,0c0.1-0.1,0.1-0.3,0.2-0.4c0.4,0.1,0.9,0.1,1.3,0.2c0.1,0,0,0.2,0,0.2h0.2
		c0-0.1,0-0.1,0-0.2c0.4,0,0.9-0.1,1.3-0.2l0,0l0.2,0.4c0.1,0,0.2,0,0.2,0l-0.2-0.4l0,0c0.3-0.1,0.6-0.2,1-0.3
		c0.2,0.2,0.4,0.5,0.6,0.8c0.1,0,0.2,0,0.2,0c-0.1-0.2-0.2-0.3-0.3-0.4c-0.1-0.1-0.2-0.3-0.3-0.4v0l0.5-0.3l0.1,0
		c0.4,0.3,0.8,0.7,1.1,1.2c0.1,0,0.2,0,0.2,0c-1-1.4-2.5-2.4-4.3-2.5l0,0l0,0c-0.2,0-0.4,0-0.6,0c-0.1,0-0.2,0-0.3,0
		c-1.7,0.1-3.3,1-4.3,2.5C11.3,11.6,11.4,11.7,11.5,11.6z"/>
	<path class="st0" d="M15.9,15.9c-0.7,0.2-1.4,0-1.9-0.5c-0.1-0.1-0.1-0.2-0.2-0.2l-1,0c0,0.6,0,1.2,0,1.8l1.1,0l0-0.3
		c0.1,0.1,0.2,0.1,0.4,0.2c0.7,0.3,1.7,0.4,2.4,0c0.5-0.3,0.8-0.9,0.7-1.5c-0.1-0.6-0.7-1.1-1.2-1.3l-1.7-0.5l-0.1-0.1
		c-0.1,0-0.1-0.1-0.1-0.2c0.1-0.2,0.5-0.2,0.7-0.2c0.5,0.1,1,0.2,1.3,0.7c0.3,0,0.7,0,1,0c0-0.6,0-1.1,0-1.7c-0.3,0-0.7,0-1,0
		c0,0.1,0,0.2,0,0.3L16,12.4c-0.8-0.3-1.9-0.4-2.6,0.1c-0.5,0.3-0.6,0.9-0.5,1.5c0.1,0.5,0.6,0.9,1,1.1c0.6,0.2,1.3,0.4,1.9,0.6
		c0.1,0,0.1,0.1,0.1,0.2C16,15.9,15.9,15.9,15.9,15.9"/>
	<path class="st0" d="M10.6,22.1L10.6,22.1v-0.4c0-0.1-0.1-0.2-0.2-0.2c-0.1,0-0.2,0.1-0.2,0.2v0.4c0,0.1,0.1,0.2,0.2,0.2
		C10.5,22.3,10.6,22.3,10.6,22.1 M10.9,22.8c0,0.3-0.2,0.5-0.6,0.5c-0.4,0-0.6-0.2-0.6-0.5v-0.1h0.4v0.1c0,0.1,0.1,0.2,0.2,0.2
		c0.1,0,0.2-0.1,0.2-0.2v-0.4h0c-0.1,0.1-0.2,0.2-0.3,0.2c-0.3,0-0.4-0.2-0.4-0.5v-0.4c0-0.3,0.2-0.5,0.6-0.5c0.4,0,0.6,0.2,0.6,0.5
		V22.8z"/>
	<path class="st0" d="M11.5,22.9L11.5,22.9c0,0.1,0.1,0.2,0.2,0.2c0.1,0,0.2-0.1,0.2-0.2v-1.1c0-0.1-0.1-0.2-0.2-0.2
		c-0.1,0-0.2,0.1-0.2,0.2V22.9z M11.2,21.8c0-0.3,0.2-0.5,0.6-0.5c0.4,0,0.6,0.2,0.6,0.5v1c0,0.3-0.2,0.5-0.6,0.5
		c-0.4,0-0.6-0.2-0.6-0.5V21.8z"/>
	<path class="st0" d="M12.9,22.9L12.9,22.9c0,0.1,0.1,0.2,0.2,0.2s0.2-0.1,0.2-0.2v-1.1c0-0.1-0.1-0.2-0.2-0.2s-0.2,0.1-0.2,0.2
		V22.9z M12.5,21.8c0-0.3,0.2-0.5,0.6-0.5c0.4,0,0.6,0.2,0.6,0.5v1c0,0.3-0.2,0.5-0.6,0.5c-0.4,0-0.6-0.2-0.6-0.5V21.8z"/>
	<path class="st0" d="M14.2,21.6c0.3,0,0.4-0.1,0.4-0.3h0.3v2h-0.4v-1.5h-0.3V21.6z"/>
	<path class="st0" d="M15.7,23L15.7,23v0.3h-0.4V23H15.7z M15.7,21.9v0.3h-0.4v-0.3H15.7z"/>
	<path class="st0" d="M16.5,21.6c-0.1,0-0.2,0.1-0.2,0.2V22H16v-0.2c0-0.3,0.2-0.5,0.6-0.5c0.4,0,0.6,0.2,0.6,0.5
		c0,0.3-0.1,0.5-0.5,0.8c-0.2,0.2-0.3,0.3-0.3,0.4c0,0,0,0,0,0h0.7v0.3H16v-0.2c0-0.2,0.1-0.4,0.4-0.6c0.3-0.3,0.4-0.4,0.4-0.6
		C16.7,21.6,16.6,21.6,16.5,21.6"/>
	<path class="st0" d="M17.7,22.9L17.7,22.9c0,0.1,0.1,0.2,0.2,0.2s0.2-0.1,0.2-0.2v-1.1c0-0.1-0.1-0.2-0.2-0.2s-0.2,0.1-0.2,0.2
		V22.9z M17.3,21.8c0-0.3,0.2-0.5,0.6-0.5c0.4,0,0.6,0.2,0.6,0.5v1c0,0.3-0.2,0.5-0.6,0.5c-0.4,0-0.6-0.2-0.6-0.5V21.8z"/>
	<path class="st0" d="M19,21.6c0.3,0,0.4-0.1,0.4-0.3h0.3v2h-0.4v-1.5H19V21.6z"/>
	<path class="st0" d="M20.4,22.7v0.2c0,0.1,0.1,0.2,0.2,0.2s0.2-0.1,0.2-0.2v-0.4c0-0.1-0.1-0.2-0.2-0.2s-0.2,0.1-0.2,0.2v0.1h-0.4
		l0.1-1.2h1v0.3h-0.7l0,0.5h0c0.1-0.1,0.2-0.1,0.3-0.1c0.3,0,0.4,0.2,0.4,0.5v0.4c0,0.3-0.2,0.5-0.6,0.5s-0.6-0.2-0.6-0.5v-0.2H20.4
		z"/>
	<path class="st5" d="M8,6.8L8.3,7c0.3,0.3,0.3,0.7-0.1,1.1C7.9,8.5,7.5,8.5,7.1,8.2L6,7.1C5.7,6.8,5.7,6.4,6.1,6
		c0.4-0.4,0.8-0.4,1.1-0.1l0.2,0.2L7.1,6.5L6.8,6.3c-0.1-0.1-0.3-0.1-0.4,0c-0.1,0.1-0.1,0.3,0,0.4l1.1,1.1C7.7,8,7.8,8,8,7.8
		c0.1-0.1,0.2-0.3,0-0.4L7.7,7.1L8,6.8z"/>
	<polygon class="st5" points="9.1,5.2 9.8,4.8 10,5.2 9.3,5.6 9.8,6.3 10.6,5.8 10.8,6.2 9.5,7 8,4.5 9.3,3.7 9.5,4 8.7,4.5 	"/>
	<path class="st5" d="M11.4,3.2L11.4,3.2l0.3,0.9L11.9,4c0.2-0.1,0.3-0.2,0.2-0.4L12,3.3C12,3.1,11.8,3,11.7,3.1L11.4,3.2z
		 M12.8,5.4c-0.1-0.1-0.1-0.1-0.2-0.3l-0.1-0.4c-0.1-0.3-0.2-0.3-0.5-0.2l-0.2,0.1l0.4,1.1l-0.5,0.2L10.7,3l0.8-0.3
		c0.5-0.2,0.9-0.1,1,0.4l0.1,0.2c0.1,0.3,0,0.5-0.2,0.7l0,0c0.3,0,0.5,0.2,0.6,0.5l0.1,0.4c0,0.1,0.1,0.2,0.2,0.3L12.8,5.4z"/>
	<polygon class="st5" points="13.7,2.1 15.5,2 15.5,2.4 14.9,2.4 15.2,5 14.6,5 14.4,2.5 13.8,2.5 	"/>
	
		<rect x="15.6" y="3.2" transform="matrix(8.434676e-02 -0.9964 0.9964 8.434676e-02 12.1497 20.2114)" class="st5" width="3" height="0.6"/>
	<polygon class="st5" points="19.3,3.7 20,3.9 19.8,4.3 19.2,4.1 18.8,5.3 18.3,5.1 19.1,2.3 20.5,2.7 20.4,3.1 19.5,2.8 	"/>
	<rect x="20" y="4.4" transform="matrix(0.4365 -0.8997 0.8997 0.4365 7.869 21.9651)" class="st5" width="3" height="0.6"/>
	<polygon class="st5" points="23.5,5.6 24.1,6.1 23.8,6.4 23.2,6 22.7,6.7 23.5,7.2 23.2,7.6 22,6.7 23.8,4.3 25,5.2 24.7,5.5 24,5 
			"/>
	<path class="st5" d="M26.2,7L26.2,7l-1.6,1.4l0.2,0.2c0.1,0.1,0.2,0.2,0.4,0l1.2-1c0.2-0.1,0.1-0.3,0-0.4L26.2,7z M26.2,6.3L26.7,7
		c0.4,0.4,0.3,0.8,0,1.1l-1.1,1c-0.4,0.3-0.7,0.3-1.1-0.2l-0.6-0.7L26.2,6.3z"/>
	<path class="st5" d="M7.5,25.7L7.1,26c-0.4,0.3-0.8,0.3-1.2-0.2c-0.4-0.4-0.4-0.8,0-1.2l1.2-1.1c0.4-0.3,0.8-0.3,1.2,0.2
		c0.4,0.4,0.4,0.8,0,1.2l-0.2,0.2l-0.4-0.4L8,24.5c0.2-0.1,0.2-0.3,0-0.4c-0.1-0.1-0.3-0.2-0.4,0l-1.3,1.1c-0.2,0.1-0.2,0.3,0,0.4
		c0.1,0.1,0.3,0.2,0.4,0l0.3-0.3L7.5,25.7z"/>
	<path class="st5" d="M8.8,27.4L8.8,27.4c-0.1,0.2-0.1,0.3,0.1,0.4c0.2,0.1,0.3,0.1,0.4-0.1l0.9-1.4c0.1-0.2,0.1-0.3-0.1-0.4
		C10,25.8,9.9,25.8,9.8,26L8.8,27.4z M9.3,25.7c0.3-0.4,0.7-0.5,1.2-0.2c0.5,0.3,0.6,0.7,0.3,1.1L9.9,28c-0.3,0.4-0.7,0.5-1.2,0.2
		c-0.5-0.3-0.6-0.7-0.3-1.1L9.3,25.7z"/>
	<polygon class="st5" points="12.7,29 12.7,29 13.7,27 14.5,27.2 13.7,30.2 13.1,30.1 13.7,27.9 13.7,27.9 12.7,29.9 12.2,29.8 
		12.4,27.6 12.4,27.6 11.8,29.7 11.3,29.5 12.1,26.5 12.9,26.8 	"/>
	<path class="st5" d="M16.2,27.7L16.2,27.7l0,1.1l0.3,0c0.2,0,0.3-0.1,0.3-0.3l0-0.5c0-0.2-0.1-0.3-0.3-0.3L16.2,27.7z M17.4,28
		l0,0.4c0,0.5-0.3,0.8-0.8,0.8l-0.3,0l0,1.2l-0.6,0l-0.1-3.1l0.9,0C17,27.2,17.3,27.5,17.4,28z"/>
	<path class="st5" d="M19.4,28.9L19.4,28.9l0.5-0.2l-0.7-1.4l0,0L19.4,28.9z M21,29.4l-0.6,0.2l-0.3-0.5l-0.7,0.2l0.1,0.6L19,30.1
		l-0.4-3.1l0.8-0.3L21,29.4z"/>
	<polygon class="st5" points="21.8,26.5 21.8,26.5 23,28.3 22.6,28.6 20.9,26 21.5,25.6 23,26.8 23,26.8 22,25.3 22.4,25 24.2,27.6 
		23.7,27.9 	"/>
	<polygon class="st5" points="25.2,25.2 23.1,24.4 23.5,23.9 24.9,24.5 24.9,24.5 24.1,23.2 24.4,22.8 25.6,24.7 26.3,25.4 26,25.8 
			"/>
	<ellipse transform="matrix(0.2898 -0.9571 0.9571 0.2898 -3.95 26.6769)" class="st7" cx="16" cy="16" rx="15.7" ry="15.8"/>
</g>
</svg>
