<?xml version="1.0" encoding="utf-8"?>
<!-- Generator: Adobe Illustrator 28.0.0, SVG Export Plug-In . SVG Version: 6.00 Build 0)  -->
<svg version="1.1" id="Layer_1" xmlns="http://www.w3.org/2000/svg" xmlns:xlink="http://www.w3.org/1999/xlink" x="0px" y="0px"
	 viewBox="0 0 32 32" style="enable-background:new 0 0 32 32;" xml:space="preserve">
<style type="text/css">
	.st0{fill-rule:evenodd;clip-rule:evenodd;fill:url(#SVGID_1_);}
	.st1{fill:none;stroke:#FFFFFF;stroke-width:0.4384;stroke-miterlimit:2.6131;}
	.st2{enable-background:new    ;}
	.st3{fill:#FFFFFF;}
</style>
<g>
	
		<linearGradient id="SVGID_1_" gradientUnits="userSpaceOnUse" x1="0" y1="15.8898" x2="32" y2="15.8898" gradientTransform="matrix(1 0 0 -1 0 31.8898)">
		<stop  offset="0" style="stop-color:#E43146"/>
		<stop  offset="1" style="stop-color:#81161E"/>
	</linearGradient>
	<path class="st0" d="M16,0c8.8,0,16,7.2,16,16s-7.2,16-16,16S0,24.8,0,16S7.2,0,16,0"/>
	<g>
		<path class="st1" d="M16,1.2c8.2,0,14.8,6.6,14.8,14.8S24.2,30.8,16,30.8C7.8,30.8,1.2,24.2,1.2,16S7.8,1.2,16,1.2z"/>
	</g>
	<g class="st2">
		<path class="st3" d="M4,13.5v-0.4c0.2,0,0.3,0,0.4,0c0.1,0,0.2-0.1,0.2-0.1c0-0.1,0.1-0.1,0.1-0.3c0-0.1,0-0.3,0-0.5v-2.2h0.4v2
			c0,0.3,0,0.5,0,0.7c0,0.2,0,0.3-0.1,0.4c0,0.1-0.1,0.2-0.2,0.2c-0.1,0-0.2,0.1-0.3,0.1C4.4,13.5,4.2,13.5,4,13.5z"/>
		<path class="st3" d="M5.8,13.5l1.3-3.4h0.5l1.3,3.4H8.4l-0.4-0.9H6.5l-0.4,0.9H5.8z M6.7,12.2H8l-0.6-1.7h0L6.7,12.2z"/>
		<path class="st3" d="M9.5,13.5v-3.4H11c0.2,0,0.4,0,0.5,0.1s0.2,0.1,0.3,0.2c0.1,0.1,0.1,0.2,0.1,0.3c0,0.1,0,0.3,0,0.4
			c0,0.1,0,0.3,0,0.4c0,0.1-0.1,0.2-0.1,0.3c-0.1,0.1-0.2,0.2-0.3,0.2c-0.1,0.1-0.3,0.1-0.5,0.1H10v1.3H9.5z M10,11.9h0.9
			c0.2,0,0.3,0,0.4,0c0.1,0,0.2-0.1,0.2-0.1c0-0.1,0.1-0.1,0.1-0.2c0-0.1,0-0.2,0-0.3s0-0.2,0-0.3c0-0.1,0-0.2-0.1-0.2
			s-0.1-0.1-0.2-0.1s-0.2,0-0.4,0H10V11.9z"/>
		<path class="st3" d="M12.2,13.5l1.3-3.4H14l1.3,3.4h-0.4l-0.4-0.9H13l-0.4,0.9H12.2z M13.1,12.2h1.3l-0.6-1.7h0L13.1,12.2z"/>
		<path class="st3" d="M16,13.5v-3.4h0.4l1.8,2.6h0v-2.6h0.4v3.4h-0.4l-1.8-2.7h0v2.7H16z"/>
		<path class="st3" d="M19.6,13.5v-3.4h2.2v0.4h-1.8v1.1h1.6V12h-1.6v1.2h1.8v0.4H19.6z"/>
		<path class="st3" d="M23.8,13.6c-0.1,0-0.3,0-0.4,0c-0.1,0-0.3,0-0.4,0c-0.1,0-0.3,0-0.4,0v-0.4c0.1,0,0.2,0,0.4,0
			c0.1,0,0.3,0,0.4,0c0.1,0,0.2,0,0.3,0c0.2,0,0.3,0,0.4,0s0.2,0,0.3-0.1c0,0,0.1-0.1,0.1-0.1s0-0.1,0-0.2c0-0.1,0-0.1,0-0.2
			c0-0.1,0-0.2,0-0.3c0-0.1,0-0.1-0.1-0.2s-0.1-0.1-0.1-0.1s-0.1,0-0.3,0l-0.9-0.1c-0.2,0-0.3-0.1-0.4-0.1s-0.2-0.1-0.2-0.2
			s-0.1-0.2-0.1-0.3c0-0.1,0-0.2,0-0.4c0-0.2,0-0.4,0.1-0.5c0.1-0.1,0.1-0.2,0.2-0.3c0.1-0.1,0.2-0.1,0.4-0.1c0.2,0,0.3,0,0.5,0
			c0.1,0,0.3,0,0.4,0c0.1,0,0.3,0,0.4,0s0.2,0,0.3,0v0.4c-0.1,0-0.2,0-0.3,0c-0.1,0-0.2,0-0.3,0c-0.1,0-0.2,0-0.3,0
			c-0.2,0-0.3,0-0.4,0c-0.1,0-0.2,0-0.3,0.1c-0.1,0-0.1,0.1-0.1,0.2s0,0.2,0,0.3c0,0.1,0,0.2,0,0.3s0.1,0.1,0.1,0.1s0.2,0,0.3,0.1
			l0.8,0.1c0.1,0,0.2,0,0.3,0s0.2,0.1,0.2,0.1s0.1,0.1,0.1,0.2c0,0,0,0.1,0,0.2s0,0.1,0,0.2s0,0.1,0,0.2c0,0.2,0,0.3-0.1,0.5
			c0,0.1-0.1,0.2-0.2,0.3c-0.1,0.1-0.1,0.1-0.2,0.2c-0.1,0-0.2,0.1-0.3,0.1C24,13.6,23.9,13.6,23.8,13.6z"/>
		<path class="st3" d="M25.8,13.5v-3.4H28v0.4h-1.8v1.1h1.6V12h-1.6v1.2H28v0.4H25.8z"/>
	</g>
	<g class="st2">
		<path class="st3" d="M5.2,18.7v-3.4h0.4l1.8,2.6h0v-2.6h0.4v3.4H7.4L5.6,16h0v2.7H5.2z"/>
		<path class="st3" d="M8.5,18.7l1.3-3.4h0.5l1.3,3.4h-0.4l-0.4-0.9H9.2l-0.4,0.9H8.5z M9.4,17.4h1.3L10,15.7h0L9.4,17.4z"/>
		<path class="st3" d="M12.6,18.7v-3.1h-1.1v-0.4h2.6v0.4H13v3.1H12.6z"/>
		<path class="st3" d="M16.1,18.7c-0.2,0-0.4,0-0.6,0c-0.2,0-0.3-0.1-0.4-0.1s-0.2-0.2-0.2-0.3c0-0.1-0.1-0.3-0.1-0.4
			c0-0.2,0-0.4,0-0.6v-1.9h0.4v2.1c0,0.2,0,0.4,0,0.5c0,0.1,0.1,0.2,0.1,0.3c0.1,0.1,0.1,0.1,0.3,0.1c0.1,0,0.3,0,0.5,0s0.4,0,0.5,0
			c0.1,0,0.2-0.1,0.3-0.1c0.1-0.1,0.1-0.2,0.1-0.3c0-0.1,0-0.3,0-0.5v-2.1h0.4v1.9c0,0.2,0,0.5,0,0.6c0,0.2,0,0.3-0.1,0.4
			c0,0.1-0.1,0.2-0.2,0.3c-0.1,0.1-0.2,0.1-0.4,0.1C16.5,18.7,16.3,18.7,16.1,18.7z"/>
		<path class="st3" d="M18.3,18.7v-3.4h1.6c0.2,0,0.4,0,0.5,0.1s0.2,0.1,0.3,0.2s0.1,0.2,0.1,0.3c0,0.1,0,0.3,0,0.4
			c0,0.1,0,0.2,0,0.4c0,0.1-0.1,0.3-0.1,0.4c-0.1,0.1-0.2,0.2-0.4,0.2l0.6,1.4h-0.5l-0.6-1.4l0.1,0.1c0,0-0.1,0-0.1,0
			c0,0-0.1,0-0.1,0h-1v1.4H18.3z M18.7,17h1c0.2,0,0.3,0,0.4,0s0.2-0.1,0.2-0.1c0-0.1,0.1-0.1,0.1-0.2c0-0.1,0-0.2,0-0.3
			s0-0.2,0-0.3c0-0.1,0-0.1-0.1-0.2c0-0.1-0.1-0.1-0.2-0.1c-0.1,0-0.2,0-0.4,0h-1V17z"/>
		<path class="st3" d="M21.3,18.7l1.3-3.4h0.5l1.3,3.4H24l-0.4-0.9h-1.5l-0.4,0.9H21.3z M22.3,17.4h1.3l-0.6-1.7h0L22.3,17.4z"/>
		<path class="st3" d="M25.1,18.7v-3.4h0.4v3.1h1.6v0.4H25.1z"/>
	</g>
	<g class="st2">
		<path class="st3" d="M8,23.9c-0.1,0-0.3,0-0.4,0c-0.1,0-0.3,0-0.4,0c-0.1,0-0.3,0-0.4,0v-0.4c0.1,0,0.2,0,0.4,0c0.1,0,0.3,0,0.4,0
			s0.2,0,0.3,0c0.2,0,0.3,0,0.4,0c0.1,0,0.2,0,0.3-0.1c0,0,0.1-0.1,0.1-0.1c0,0,0-0.1,0-0.2c0-0.1,0-0.1,0-0.2c0-0.1,0-0.2,0-0.3
			c0-0.1,0-0.1-0.1-0.2s-0.1-0.1-0.1-0.1c-0.1,0-0.1,0-0.3,0l-0.9-0.1c-0.2,0-0.3-0.1-0.4-0.1C7,22.1,6.9,22,6.9,22
			c0-0.1-0.1-0.2-0.1-0.3c0-0.1,0-0.2,0-0.4c0-0.2,0-0.4,0.1-0.5c0.1-0.1,0.1-0.2,0.2-0.3c0.1-0.1,0.2-0.1,0.4-0.1
			c0.2,0,0.3,0,0.5,0c0.1,0,0.3,0,0.4,0c0.1,0,0.3,0,0.4,0c0.1,0,0.2,0,0.3,0v0.4c-0.1,0-0.2,0-0.3,0c-0.1,0-0.2,0-0.3,0
			c-0.1,0-0.2,0-0.3,0c-0.2,0-0.3,0-0.4,0s-0.2,0-0.3,0.1c-0.1,0-0.1,0.1-0.1,0.2c0,0.1,0,0.2,0,0.3c0,0.1,0,0.2,0,0.3
			c0,0.1,0.1,0.1,0.1,0.1s0.2,0,0.3,0.1l0.8,0.1c0.1,0,0.2,0,0.3,0C8.8,22,8.9,22,9,22.1s0.1,0.1,0.1,0.2c0,0,0,0.1,0,0.2
			c0,0.1,0,0.1,0,0.2s0,0.1,0,0.2c0,0.2,0,0.3-0.1,0.5c0,0.1-0.1,0.2-0.2,0.3c-0.1,0.1-0.1,0.1-0.2,0.2c-0.1,0-0.2,0.1-0.3,0.1
			C8.3,23.9,8.2,23.9,8,23.9z"/>
		<path class="st3" d="M11.3,23.9c-0.3,0-0.5,0-0.7,0c-0.2,0-0.3-0.1-0.4-0.2c-0.1-0.1-0.2-0.2-0.2-0.3c0-0.1-0.1-0.3-0.1-0.5
			s0-0.5,0-0.8s0-0.5,0-0.8c0-0.2,0-0.4,0.1-0.5c0-0.1,0.1-0.2,0.2-0.3c0.1-0.1,0.2-0.1,0.4-0.2s0.4,0,0.7,0s0.5,0,0.7,0
			c0.2,0,0.3,0.1,0.4,0.2s0.2,0.2,0.2,0.3c0,0.1,0.1,0.3,0.1,0.5c0,0.2,0,0.5,0,0.8s0,0.5,0,0.8c0,0.2,0,0.4-0.1,0.5
			c0,0.1-0.1,0.2-0.2,0.3s-0.2,0.1-0.4,0.2C11.8,23.9,11.6,23.9,11.3,23.9z M11.3,23.5c0.2,0,0.3,0,0.5,0s0.2,0,0.3-0.1
			s0.1-0.1,0.2-0.2c0-0.1,0.1-0.2,0.1-0.4s0-0.4,0-0.7c0-0.3,0-0.5,0-0.7s0-0.3-0.1-0.4c0-0.1-0.1-0.2-0.2-0.2s-0.2-0.1-0.3-0.1
			s-0.3,0-0.5,0c-0.2,0-0.3,0-0.5,0s-0.2,0-0.3,0.1c-0.1,0-0.1,0.1-0.2,0.2c0,0.1-0.1,0.2-0.1,0.4c0,0.2,0,0.4,0,0.7
			c0,0.3,0,0.5,0,0.7c0,0.2,0,0.3,0.1,0.4c0,0.1,0.1,0.2,0.2,0.2c0.1,0,0.2,0.1,0.3,0.1S11.1,23.5,11.3,23.5z"/>
		<path class="st3" d="M14.9,23.9c-0.2,0-0.4,0-0.6,0c-0.2,0-0.3-0.1-0.4-0.1s-0.2-0.2-0.2-0.3c0-0.1-0.1-0.3-0.1-0.4
			c0-0.2,0-0.4,0-0.6v-1.9H14v2.1c0,0.2,0,0.4,0,0.5c0,0.1,0.1,0.2,0.1,0.3c0.1,0.1,0.1,0.1,0.3,0.1c0.1,0,0.3,0,0.5,0s0.4,0,0.5,0
			c0.1,0,0.2-0.1,0.3-0.1c0.1-0.1,0.1-0.2,0.1-0.3c0-0.1,0-0.3,0-0.5v-2.1h0.4v1.9c0,0.2,0,0.5,0,0.6c0,0.2,0,0.3-0.1,0.4
			c0,0.1-0.1,0.2-0.2,0.3c-0.1,0.1-0.2,0.1-0.4,0.1C15.3,23.9,15.1,23.9,14.9,23.9z"/>
		<path class="st3" d="M17.1,23.9v-3.4h1.6c0.2,0,0.4,0,0.5,0.1c0.1,0.1,0.2,0.1,0.3,0.2s0.1,0.2,0.1,0.3c0,0.1,0,0.3,0,0.4
			c0,0.1,0,0.2,0,0.4c0,0.1-0.1,0.3-0.1,0.4c-0.1,0.1-0.2,0.2-0.4,0.2l0.6,1.4h-0.5l-0.6-1.4l0.1,0.1c0,0-0.1,0-0.1,0
			c0,0-0.1,0-0.1,0h-1v1.4H17.1z M17.6,22.1h1c0.2,0,0.3,0,0.4,0s0.2-0.1,0.2-0.1c0-0.1,0.1-0.1,0.1-0.2c0-0.1,0-0.2,0-0.3
			s0-0.2,0-0.3c0-0.1,0-0.1-0.1-0.2c0-0.1-0.1-0.1-0.2-0.1c-0.1,0-0.2,0-0.4,0h-1V22.1z"/>
		<path class="st3" d="M21.8,23.9c-0.2,0-0.4,0-0.6,0c-0.2,0-0.3-0.1-0.4-0.1c-0.1-0.1-0.2-0.2-0.2-0.3c-0.1-0.1-0.1-0.3-0.1-0.5
			c0-0.2,0-0.5,0-0.8s0-0.5,0-0.8c0-0.2,0.1-0.4,0.1-0.5c0.1-0.1,0.1-0.2,0.2-0.3c0.1-0.1,0.2-0.1,0.4-0.2s0.4,0,0.6,0
			c0.1,0,0.2,0,0.3,0c0.1,0,0.2,0,0.3,0c0.1,0,0.2,0,0.2,0v0.3c-0.1,0-0.2,0-0.2,0c-0.1,0-0.2,0-0.2,0c-0.1,0-0.2,0-0.2,0
			c-0.2,0-0.4,0-0.5,0s-0.2,0-0.3,0.1c-0.1,0-0.1,0.1-0.2,0.2s-0.1,0.2-0.1,0.4c0,0.2,0,0.4,0,0.6c0,0.3,0,0.5,0,0.6
			c0,0.2,0,0.3,0.1,0.4s0.1,0.2,0.2,0.2c0.1,0,0.2,0.1,0.3,0.1c0.1,0,0.3,0,0.5,0c0.1,0,0.2,0,0.4,0c0.1,0,0.2,0,0.3,0v0.4
			c-0.1,0-0.2,0-0.2,0c-0.1,0-0.2,0-0.3,0C22,23.9,21.9,23.9,21.8,23.9z"/>
		<path class="st3" d="M23.4,23.9v-3.4h2.2v0.4h-1.8v1.1h1.6v0.4h-1.6v1.2h1.8v0.4H23.4z"/>
	</g>
</g>
</svg>
