<?xml version="1.0" encoding="utf-8"?>
<!-- Generator: Adobe Illustrator 28.0.0, SVG Export Plug-In . SVG Version: 6.00 Build 0)  -->
<svg version="1.1" id="Layer_1" xmlns="http://www.w3.org/2000/svg" xmlns:xlink="http://www.w3.org/1999/xlink" x="0px" y="0px"
	 viewBox="0 0 32 32" style="enable-background:new 0 0 32 32;" xml:space="preserve">
<style type="text/css">
	.st0{fill:none;stroke:#3E4095;stroke-width:4;stroke-miterlimit:10;}
	.st1{fill:#0556A4;}
	.st2{fill-rule:evenodd;clip-rule:evenodd;fill:#0556A4;}
	.st3{fill:none;stroke:#0357A3;stroke-width:1.8752;stroke-miterlimit:2.6131;}
	.st4{fill-rule:evenodd;clip-rule:evenodd;fill:#0357A3;}
	.st5{fill:none;stroke:#FFFFFF;stroke-width:0.9615;stroke-miterlimit:2.6131;}
	.st6{fill-rule:evenodd;clip-rule:evenodd;fill:#FFFFFF;}
	.st7{fill:#0357A3;}
	.st8{fill:#FFFFFF;}
	.st9{fill:none;stroke:#0357A3;stroke-width:0.9615;stroke-miterlimit:2.6131;}
	.st10{fill:none;stroke:#FFFFFF;stroke-width:0.5653;stroke-miterlimit:2.6131;}
	.st11{fill-rule:evenodd;clip-rule:evenodd;fill:none;stroke:#0357A3;stroke-width:1.8752;stroke-miterlimit:10;}
	.st12{fill-rule:evenodd;clip-rule:evenodd;fill:url(#SVGID_00000125564359879724730020000005678501168513301678_);}
	.st13{fill:none;stroke:#FFFFFF;stroke-width:0.4384;stroke-miterlimit:2.6131;}
	.st14{fill:none;stroke:#0357A3;stroke-miterlimit:10;}
	.st15{fill-rule:evenodd;clip-rule:evenodd;fill:#3B8B44;}
	.st16{fill:#3B8B44;}
	.st17{fill:#808285;}
	.st18{enable-background:new    ;}
	.st19{clip-path:url(#SVGID_00000047778979848987971210000008422731922095909771_);enable-background:new    ;}
	.st20{fill:#03325F;}
	.st21{fill:#03305C;}
	.st22{fill:#032E59;}
	.st23{fill:#032D55;}
	.st24{clip-path:url(#SVGID_00000132071816103479924570000006400281192704153515_);enable-background:new    ;}
	.st25{fill:#949494;}
	.st26{fill:#8F8F8F;}
	.st27{fill:#8A8A8A;}
	.st28{fill:#858585;}
	.st29{clip-path:url(#SVGID_00000149368056104418198730000015408757466870154652_);enable-background:new    ;}
	.st30{fill:#828282;}
	.st31{fill:#888888;}
	.st32{fill:#808080;}
	.st33{clip-path:url(#SVGID_00000120533297669511488970000009401701174506413986_);enable-background:new    ;}
	.st34{fill:#032E57;}
	.st35{fill:#969696;}
	.st36{fill:#033260;}
	.st37{clip-path:url(#SVGID_00000183953047975484343340000002822432574947900091_);enable-background:new    ;}
	.st38{fill:#032C54;}
	.st39{clip-path:url(#SVGID_00000158708016329394074460000011896833320636090779_);enable-background:new    ;}
	.st40{clip-path:url(#SVGID_00000027602977153650679010000014492521079155864202_);enable-background:new    ;}
	.st41{clip-path:url(#SVGID_00000094604179232825998090000012922849191085227661_);enable-background:new    ;}
	.st42{clip-path:url(#SVGID_00000138531992244156164280000017222015973370056884_);enable-background:new    ;}
	.st43{clip-path:url(#SVGID_00000176012909882555271820000008322280937231561096_);enable-background:new    ;}
	.st44{clip-path:url(#SVGID_00000031896009605105810580000007673656594994362769_);enable-background:new    ;}
	.st45{clip-path:url(#SVGID_00000087378428288332116160000011074719762218310313_);enable-background:new    ;}
	.st46{clip-path:url(#SVGID_00000148648094361045096010000015092230675241385143_);enable-background:new    ;}
	.st47{clip-path:url(#SVGID_00000061472144913444659540000017167354574338564269_);enable-background:new    ;}
	.st48{clip-path:url(#SVGID_00000071550159516283329070000010397044710015186870_);enable-background:new    ;}
	.st49{clip-path:url(#SVGID_00000155825754894921470870000005545943002667732660_);enable-background:new    ;}
	.st50{clip-path:url(#SVGID_00000011727364063026793420000007778112958409997965_);enable-background:new    ;}
	.st51{fill:#909090;}
	.st52{clip-path:url(#SVGID_00000176726236264557357270000014433062451117982336_);enable-background:new    ;}
	.st53{clip-path:url(#SVGID_00000034089834580994769210000016718852410056284070_);enable-background:new    ;}
	.st54{fill:#848484;}
	.st55{fill:#939393;}
	.st56{clip-path:url(#SVGID_00000065065763893713908200000015572756311523748275_);enable-background:new    ;}
	.st57{clip-path:url(#SVGID_00000047773432185413807730000007463942229276936377_);enable-background:new    ;}
	.st58{clip-path:url(#SVGID_00000018925778143515663840000006866375946636817074_);enable-background:new    ;}
	.st59{clip-path:url(#SVGID_00000178207057160362721720000004414844184505423550_);enable-background:new    ;}
	.st60{clip-path:url(#SVGID_00000140009993444704581520000016098392344644338573_);enable-background:new    ;}
	.st61{fill:#032B52;}
	.st62{clip-path:url(#SVGID_00000080196143729407676790000008819608691676845709_);enable-background:new    ;}
	.st63{clip-path:url(#SVGID_00000179627273081220395060000016534304544222329520_);enable-background:new    ;}
	.st64{fill:#ECECEC;}
	.st65{fill:#055098;}
	.st66{clip-path:url(#SVGID_00000052069846926331785720000012653346623592546706_);enable-background:new    ;}
	.st67{clip-path:url(#SVGID_00000000930268649542444770000004236665030973413510_);enable-background:new    ;}
	.st68{fill:#03315D;}
	.st69{clip-path:url(#SVGID_00000079469818099596363650000006998577631460692875_);enable-background:new    ;}
	.st70{clip-path:url(#SVGID_00000049937136395611419930000002077130732297137061_);enable-background:new    ;}
	.st71{clip-path:url(#SVGID_00000150061705902247821770000015598275910722585992_);enable-background:new    ;}
	.st72{clip-path:url(#SVGID_00000137849105428139488650000003220960844621346471_);enable-background:new    ;}
	.st73{clip-path:url(#SVGID_00000093855992348614976940000003276840758164788128_);enable-background:new    ;}
	.st74{fill:#959595;}
	.st75{clip-path:url(#SVGID_00000036218491522089226470000012469130417916197543_);enable-background:new    ;}
	.st76{clip-path:url(#SVGID_00000102514233509525093530000009061961300594606523_);enable-background:new    ;}
	.st77{clip-path:url(#SVGID_00000032620989137878136880000010104015015559941261_);enable-background:new    ;}
	.st78{fill:#033360;}
	.st79{clip-path:url(#SVGID_00000103956338674757667130000009563602439991765122_);enable-background:new    ;}
	.st80{clip-path:url(#SVGID_00000100384065641773072470000013782569932183200135_);enable-background:new    ;}
	.st81{clip-path:url(#SVGID_00000105386920581018574740000012967409861153727133_);enable-background:new    ;}
	.st82{fill:#818181;}
	.st83{clip-path:url(#SVGID_00000065057708769706624800000005974738147652811165_);enable-background:new    ;}
	.st84{fill:#919191;}
	.st85{clip-path:url(#SVGID_00000045610644478277556820000007348736905072938411_);enable-background:new    ;}
	.st86{fill:#032C53;}
	.st87{clip-path:url(#SVGID_00000143577976937688265360000013143129993042763906_);enable-background:new    ;}
	.st88{clip-path:url(#SVGID_00000153668322742559533880000005179984954938756775_);enable-background:new    ;}
	.st89{clip-path:url(#SVGID_00000085230441367097018700000007159988804996618929_);enable-background:new    ;}
	.st90{clip-path:url(#SVGID_00000089533168730252795290000007904698140421043624_);enable-background:new    ;}
	.st91{clip-path:url(#SVGID_00000137097620780061200280000014668433672534963617_);enable-background:new    ;}
	.st92{clip-path:url(#SVGID_00000134222460052564829710000015554559752411574666_);enable-background:new    ;}
	.st93{clip-path:url(#SVGID_00000139999702076100412410000012459636341625702306_);enable-background:new    ;}
	.st94{clip-path:url(#SVGID_00000160148562734092162200000001031422725822010496_);enable-background:new    ;}
	.st95{clip-path:url(#SVGID_00000047031935939053727410000011671827528188773260_);enable-background:new    ;}
	.st96{clip-path:url(#SVGID_00000057121565289200477800000013979484897883444354_);enable-background:new    ;}
	.st97{clip-path:url(#SVGID_00000052077658595948559780000009380288144464434608_);enable-background:new    ;}
	.st98{clip-path:url(#SVGID_00000164503190779136021160000000915533390649785782_);enable-background:new    ;}
	.st99{clip-path:url(#SVGID_00000005967265017530625850000012425361423083089083_);enable-background:new    ;}
	.st100{clip-path:url(#SVGID_00000085218143734999150340000003649631336661535670_);enable-background:new    ;}
	.st101{clip-path:url(#SVGID_00000059283109620089079990000000232171776822002584_);enable-background:new    ;}
	.st102{clip-path:url(#SVGID_00000097467852092766972930000003845477607555893639_);enable-background:new    ;}
	.st103{clip-path:url(#SVGID_00000127001834115260614750000003111877918371634314_);enable-background:new    ;}
	.st104{clip-path:url(#SVGID_00000140015351220281660470000002570340167329580700_);enable-background:new    ;}
	.st105{clip-path:url(#SVGID_00000048478614355995167920000014111307371449861030_);enable-background:new    ;}
	.st106{fill:#032C55;}
	.st107{clip-path:url(#SVGID_00000040533441100301394960000010590113640698034054_);enable-background:new    ;}
	.st108{clip-path:url(#SVGID_00000102517962500308395790000016243950718186740657_);enable-background:new    ;}
	.st109{clip-path:url(#SVGID_00000036234576928050967270000001276126602928406919_);enable-background:new    ;}
	.st110{clip-path:url(#SVGID_00000110441954091444059400000016864461756265319314_);enable-background:new    ;}
	.st111{clip-path:url(#SVGID_00000103959379090478370800000005220490175869346706_);enable-background:new    ;}
	.st112{clip-path:url(#SVGID_00000150066597988853784150000009510039232416780685_);enable-background:new    ;}
	.st113{clip-path:url(#SVGID_00000083056022109679143350000017013740709248001157_);enable-background:new    ;}
	.st114{clip-path:url(#SVGID_00000003799126513267656000000012841032072213415828_);enable-background:new    ;}
	.st115{clip-path:url(#SVGID_00000114059949997720327900000006326248079356754090_);enable-background:new    ;}
	.st116{clip-path:url(#SVGID_00000005966101682723275360000003222588922021652103_);enable-background:new    ;}
	.st117{clip-path:url(#SVGID_00000090995995891970497310000015143713839114845852_);enable-background:new    ;}
	.st118{fill:#929292;}
	.st119{clip-path:url(#SVGID_00000058574846788487167260000016977323208296257684_);enable-background:new    ;}
	.st120{fill:#03315E;}
	.st121{clip-path:url(#SVGID_00000008151191068450681870000001904791817970551481_);enable-background:new    ;}
	.st122{fill:#868686;}
	.st123{clip-path:url(#SVGID_00000088095590278453774010000011059239634960757644_);enable-background:new    ;}
	.st124{fill:#032D56;}
	.st125{fill:#032D57;}
	.st126{fill:#032B53;}
	.st127{clip-path:url(#SVGID_00000156565808426276646010000002248693002769193132_);enable-background:new    ;}
	.st128{clip-path:url(#SVGID_00000030452911746191000850000000740212583356124592_);enable-background:new    ;}
	.st129{clip-path:url(#SVGID_00000030450494668006927200000015267985608317864379_);enable-background:new    ;}
	.st130{clip-path:url(#SVGID_00000173159679161741251900000001800768399815480243_);enable-background:new    ;}
	.st131{fill:#8E8E8E;}
	.st132{fill:#03305B;}
	.st133{fill:#878787;}
	.st134{clip-path:url(#SVGID_00000129908691808575843550000004385944985340688306_);enable-background:new    ;}
	.st135{clip-path:url(#SVGID_00000114032361878332177640000016430055687901963144_);enable-background:new    ;}
	.st136{clip-path:url(#SVGID_00000054232729108998391930000008904773594343166093_);enable-background:new    ;}
	.st137{clip-path:url(#SVGID_00000008853830682473741870000006636530967188155034_);enable-background:new    ;}
	.st138{fill:#03325E;}
	.st139{clip-path:url(#SVGID_00000163763481614192685600000018443624951209268382_);enable-background:new    ;}
	.st140{clip-path:url(#SVGID_00000000917800381141152950000010786785248769168779_);enable-background:new    ;}
	.st141{clip-path:url(#SVGID_00000180338981363483812960000016284275108307438264_);enable-background:new    ;}
	.st142{clip-path:url(#SVGID_00000080910989897219233560000017222373394666765983_);enable-background:new    ;}
	.st143{clip-path:url(#SVGID_00000145740617468778633580000007934155594299108773_);enable-background:new    ;}
	.st144{clip-path:url(#SVGID_00000131361583903275574480000015835658099221698472_);enable-background:new    ;}
	.st145{clip-path:url(#SVGID_00000165943289758050224570000003871590310580606375_);enable-background:new    ;}
	.st146{clip-path:url(#SVGID_00000181061143152884680560000003930317488281963411_);enable-background:new    ;}
	.st147{clip-path:url(#SVGID_00000069361552205068351610000008133239370798540681_);enable-background:new    ;}
	.st148{clip-path:url(#SVGID_00000025411551975829202740000013643923382710400958_);enable-background:new    ;}
	.st149{clip-path:url(#SVGID_00000178172442101460172620000005463286573929265028_);enable-background:new    ;}
	.st150{clip-path:url(#SVGID_00000021098390951794504590000014713755420634273700_);enable-background:new    ;}
	.st151{clip-path:url(#SVGID_00000008142284944101597840000013372151516108789126_);enable-background:new    ;}
	.st152{clip-path:url(#SVGID_00000063595913216251225190000010868690591818505146_);enable-background:new    ;}
	.st153{clip-path:url(#SVGID_00000163064038528878370250000002179113334732884644_);enable-background:new    ;}
	.st154{clip-path:url(#SVGID_00000005230316504070184030000018320112604967139007_);enable-background:new    ;}
	.st155{clip-path:url(#SVGID_00000160152887190914245930000000419594805497224333_);enable-background:new    ;}
	.st156{clip-path:url(#SVGID_00000013184287030684090020000001129743660038195645_);enable-background:new    ;}
	.st157{clip-path:url(#SVGID_00000056403051722761021990000017268339228884334265_);enable-background:new    ;}
	.st158{clip-path:url(#SVGID_00000067954517130761227180000008235875504927079041_);enable-background:new    ;}
	.st159{clip-path:url(#SVGID_00000183930053080500646620000003160683818822597002_);enable-background:new    ;}
	.st160{clip-path:url(#SVGID_00000096774872107834367240000004977442366840305831_);enable-background:new    ;}
	.st161{clip-path:url(#SVGID_00000060739828744486871840000001470199159187872910_);enable-background:new    ;}
	.st162{clip-path:url(#SVGID_00000042713558665306575100000015366776210033036468_);enable-background:new    ;}
	.st163{clip-path:url(#SVGID_00000023980834879596980350000003093394654200899975_);enable-background:new    ;}
	.st164{clip-path:url(#SVGID_00000062157989728030794340000006127156203909831829_);enable-background:new    ;}
	.st165{clip-path:url(#SVGID_00000029012900893335380770000014478611966936536486_);enable-background:new    ;}
	.st166{clip-path:url(#SVGID_00000068646830273698384150000017448914309081128320_);enable-background:new    ;}
	.st167{clip-path:url(#SVGID_00000086664644890438957030000006731555971580771749_);enable-background:new    ;}
	.st168{clip-path:url(#SVGID_00000094609567646799639210000001892734618635902862_);enable-background:new    ;}
	.st169{clip-path:url(#SVGID_00000108997048486158279280000008076968234812741547_);enable-background:new    ;}
	.st170{clip-path:url(#SVGID_00000018228138884958552740000008088824194724849839_);enable-background:new    ;}
	.st171{clip-path:url(#SVGID_00000183211268940117812830000002253025837360677552_);enable-background:new    ;}
	.st172{fill-rule:evenodd;clip-rule:evenodd;fill:none;stroke:#3E4095;stroke-width:4;stroke-miterlimit:10;}
	.st173{fill-rule:evenodd;clip-rule:evenodd;fill:#808285;}
	
		.st174{clip-path:url(#SVGID_00000116945709665978353380000013408202427602242433_);fill-rule:evenodd;clip-rule:evenodd;fill:#FFFFFF;}
	.st175{fill:#FFFFFF;stroke:#6D6D6D;stroke-width:0.8744;stroke-miterlimit:10;}
	.st176{fill-rule:evenodd;clip-rule:evenodd;fill:#FFFFFF;stroke:#6D6D6D;stroke-width:0.8744;stroke-miterlimit:10;}
	.st177{fill:none;stroke:#000000;stroke-miterlimit:10;}
	.st178{fill:#E6E7E8;stroke:#3E4095;stroke-width:4;stroke-miterlimit:10;}
	.st179{fill-rule:evenodd;clip-rule:evenodd;fill:#E6E7E8;stroke:#3E4095;stroke-width:2.0079;stroke-miterlimit:10;}
	
		.st180{clip-path:url(#SVGID_00000137844313474025113960000000560965533982518163_);fill-rule:evenodd;clip-rule:evenodd;fill:#FFFFFF;}
	
		.st181{clip-path:url(#SVGID_00000121280734047628565380000000480963774041336466_);fill:url(#SVGID_00000038387345442450918710000011474302441071943575_);}
	.st182{fill:#A6A8AB;}
	.st183{fill-rule:evenodd;clip-rule:evenodd;fill:url(#SVGID_00000121249990119952819510000009815300568545840789_);}
	.st184{fill:none;stroke:#FFFFFF;stroke-width:0.8549;stroke-miterlimit:2.6131;}
	.st185{clip-path:url(#SVGID_00000018238057236907681990000007432274315117669510_);fill:#EC1E79;}
	
		.st186{clip-path:url(#SVGID_00000018238057236907681990000007432274315117669510_);fill:url(#SVGID_00000176038012744980515840000012605217550259916438_);}
	.st187{clip-path:url(#SVGID_00000018238057236907681990000007432274315117669510_);}
	.st188{opacity:0.25;clip-path:url(#SVGID_00000018238057236907681990000007432274315117669510_);}
	.st189{clip-path:url(#SVGID_00000018238057236907681990000007432274315117669510_);fill:none;}
	
		.st190{opacity:0.75;clip-path:url(#SVGID_00000018238057236907681990000007432274315117669510_);fill:url(#SVGID_00000134955293080259459200000015225188351325108624_);}
	.st191{fill:#F2F2F2;}
	.st192{clip-path:url(#SVGID_00000047056843809453791810000016124937052358335628_);fill:#EF8F21;}
	
		.st193{clip-path:url(#SVGID_00000047056843809453791810000016124937052358335628_);fill:url(#SVGID_00000079446020022237886510000017244726934720322987_);}
	.st194{clip-path:url(#SVGID_00000047056843809453791810000016124937052358335628_);}
	.st195{opacity:0.25;clip-path:url(#SVGID_00000047056843809453791810000016124937052358335628_);}
	.st196{clip-path:url(#SVGID_00000047056843809453791810000016124937052358335628_);fill:none;}
	
		.st197{opacity:0.75;clip-path:url(#SVGID_00000047056843809453791810000016124937052358335628_);fill:url(#SVGID_00000114761720188159960990000006833036559767461001_);}
	.st198{opacity:0.6;}
	.st199{clip-path:url(#SVGID_00000113319368410649692680000017106173843895620012_);fill:#3C9846;}
	
		.st200{clip-path:url(#SVGID_00000113319368410649692680000017106173843895620012_);fill:url(#SVGID_00000172400313132998938890000008499373246586158248_);}
	.st201{clip-path:url(#SVGID_00000113319368410649692680000017106173843895620012_);}
	.st202{opacity:0.25;clip-path:url(#SVGID_00000113319368410649692680000017106173843895620012_);}
	.st203{clip-path:url(#SVGID_00000113319368410649692680000017106173843895620012_);fill:none;}
	
		.st204{opacity:0.75;clip-path:url(#SVGID_00000113319368410649692680000017106173843895620012_);fill:url(#SVGID_00000021107224012857712790000003263526107800666045_);}
	.st205{clip-path:url(#SVGID_00000177479876845572469360000004524465669852398770_);fill:#5EC8DC;}
	
		.st206{clip-path:url(#SVGID_00000177479876845572469360000004524465669852398770_);fill:url(#SVGID_00000178904386286441130780000017584753712853385112_);}
	.st207{clip-path:url(#SVGID_00000177479876845572469360000004524465669852398770_);}
	.st208{opacity:0.25;clip-path:url(#SVGID_00000177479876845572469360000004524465669852398770_);}
	.st209{clip-path:url(#SVGID_00000177479876845572469360000004524465669852398770_);fill:none;}
	
		.st210{opacity:0.75;clip-path:url(#SVGID_00000177479876845572469360000004524465669852398770_);fill:url(#SVGID_00000068671834189563304550000016675636581309073545_);}
</style>
<g>
	<g>
		<path class="st6" d="M16,0c8.84,0,16,7.16,16,16c0,8.84-7.16,16-16,16C7.16,32,0,24.84,0,16C0,7.16,7.16,0,16,0"/>
		<path class="st6" d="M16,1.58c7.96,0,14.42,6.46,14.42,14.42c0,7.96-6.46,14.42-14.42,14.42C8.04,30.42,1.58,23.96,1.58,16
			C1.58,8.04,8.04,1.58,16,1.58"/>
		<path class="st15" d="M29.83,19.37h-7.61c-1.2,2.21-3.53,3.7-6.22,3.7c-2.69,0-5.02-1.5-6.22-3.7H2.17
			C3.69,25.6,9.3,30.23,16,30.23C22.7,30.23,28.31,25.6,29.83,19.37 M2.17,12.63h7.61c1.2-2.21,3.53-3.7,6.22-3.7
			c2.69,0,5.02,1.5,6.22,3.7h7.61C28.31,6.4,22.7,1.77,16,1.77C9.3,1.77,3.69,6.4,2.17,12.63z M14.39,18.64
			c0.38,0.21,0.67,0.44,0.87,0.7c-0.17-0.31-0.35-0.7-0.43-1.13c-0.12-0.58-0.06-1.24,0.1-1.9c0.36-1.31,0.9-2.58,0.96-3.12
			c-0.02,0-0.04,0-0.06,0c-0.14,0.55-0.86,1.83-1.34,3.13c-0.21,0.65-0.32,1.31-0.21,1.89C14.31,18.35,14.35,18.5,14.39,18.64z
			 M10.32,16.73c0.03-0.03,0.24,0.37,0.92,0.69c0.44,0.24,1.1,0.44,1.82,0.68c-0.35-0.71-0.38-1.67,0.15-2.88
			c0.66-1.45,1.54-2.75,1.87-3.7c0.39-0.95,0.23-1.54,0.29-1.54c-0.06,0,1.04,0.61,1.59,1.58c0.61,0.97,0.67,2.29,0.01,3.73
			c-0.25,0.58-0.45,1.1-0.6,1.56c0.21-0.15,0.46-0.29,0.74-0.42c1.29-0.57,2.64-0.91,3.41-1.35c0.82-0.4,1.06-0.88,1.1-0.85
			c-0.04-0.03,0.33,1.02,0.12,1.98c-0.16,1-0.9,1.91-2.19,2.48c-1.17,0.54-1.95,1.06-2.46,1.47c-0.52,0.39-0.77,0.66-1.1,0.48
			c0.06-0.34,0.16-0.84,0.44-1.28c0.26-0.45,0.69-0.86,1.18-1.2c1-0.66,2.12-1.18,2.48-1.5c-0.01-0.01-0.03-0.02-0.04-0.04
			c-0.42,0.28-1.65,0.7-2.73,1.29c-0.52,0.31-0.98,0.68-1.25,1.12c-0.28,0.44-0.37,0.94-0.38,1.32l-0.02-0.03
			c0.05,0.56-0.15,1.11-0.34,1.39c-0.01-0.31-0.1-0.73-0.34-1.08c-0.23-0.36-0.62-0.67-1.05-0.91c-0.9-0.47-1.93-0.8-2.28-1.03
			c-0.01,0.01-0.02,0.02-0.03,0.03c0.3,0.26,1.23,0.68,2.07,1.21c0.41,0.27,0.77,0.6,1,0.97c0.23,0.37,0.33,0.78,0.38,1.05
			c-0.27,0.15-0.49-0.06-0.92-0.38c-0.43-0.33-1.08-0.75-2.06-1.18c-1.07-0.45-1.7-1.2-1.85-2.02
			C10.06,17.58,10.35,16.7,10.32,16.73z M16,0.68c8.46,0,15.32,6.86,15.32,15.32c0,8.46-6.86,15.32-15.32,15.32
			C7.54,31.32,0.68,24.46,0.68,16C0.68,7.54,7.54,0.68,16,0.68z"/>
		<path class="st16" d="M23.47,10.06l0.83,1.17l-0.41,0.29l-1.21-1.7l2.63-1.88l0.38,0.53L23.47,10.06z M21.99,7.69l0.64,0.51
			l0.49-1.25L23.1,6.94L21.99,7.69z M22.44,8.69l-0.88-0.71l-0.61,0.4l-0.51-0.41l2.89-1.83l0.52,0.41l-1.16,3.21l-0.51-0.41
			L22.44,8.69z M19.08,5.61l0.53,0.18c0.17,0.06,0.31,0.07,0.42,0.02c0.11-0.04,0.19-0.14,0.24-0.28c0.05-0.14,0.04-0.27-0.01-0.38
			c-0.06-0.11-0.17-0.2-0.33-0.25l-0.54-0.18L19.08,5.61z M18.92,6.08L18.5,7.31L17.89,7.1l1.04-3.06l1.15,0.39
			c0.35,0.12,0.59,0.29,0.74,0.52c0.14,0.23,0.17,0.48,0.07,0.77c-0.05,0.16-0.14,0.28-0.26,0.37c-0.12,0.09-0.27,0.14-0.46,0.15
			c0.16,0.11,0.26,0.25,0.3,0.4c0.04,0.15,0.02,0.32-0.04,0.5l-0.08,0.23c-0.03,0.09-0.05,0.18-0.06,0.28
			c-0.01,0.1,0.01,0.18,0.05,0.25l-0.02,0.04L19.7,7.71c-0.04-0.06-0.05-0.15-0.03-0.26c0.02-0.11,0.04-0.21,0.08-0.31l0.07-0.22
			c0.05-0.15,0.05-0.29,0-0.4c-0.05-0.11-0.16-0.2-0.31-0.25L18.92,6.08z M17.55,3.76L17.52,5.9c-0.01,0.36-0.13,0.64-0.37,0.83
			c-0.24,0.19-0.56,0.29-0.95,0.28c-0.39-0.01-0.7-0.11-0.93-0.31c-0.23-0.2-0.35-0.48-0.34-0.84l0.04-2.14l0.65,0.01l-0.03,2.14
			c0,0.21,0.05,0.37,0.16,0.48c0.11,0.11,0.27,0.16,0.47,0.17c0.2,0,0.36-0.05,0.48-0.15c0.12-0.1,0.18-0.26,0.18-0.48l0.03-2.14
			L17.55,3.76z M13.78,4.39L12.9,4.65l0.76,2.62l-0.62,0.18l-0.76-2.62L11.4,5.08L11.26,4.6l2.37-0.69L13.78,4.39z M10.14,7.61
			l0.68-0.44L9.79,6.31L9.78,6.32L10.14,7.61z M11.23,7.5l-0.95,0.62l0.19,0.7L9.92,9.18L9.09,5.86L9.65,5.5l2.69,2.11l-0.55,0.36
			L11.23,7.5z M9.72,9.36l-0.4,0.51L6.78,9.54L6.78,9.55l1.74,1.36l-0.4,0.51L5.57,9.43l0.4-0.51l2.54,0.33l0.01-0.01L6.78,7.88
			l0.4-0.51L9.72,9.36z"/>
		<path class="st16" d="M21.33,27.29l-0.47,0.02l0.11-3.97l0.47-0.02L21.33,27.29z M22.41,26.07c0.06,0.1,0.13,0.16,0.23,0.2
			c0.1,0.03,0.2,0.02,0.29-0.03c0.11-0.06,0.17-0.14,0.18-0.23c0.01-0.09-0.02-0.19-0.08-0.3l-0.12-0.2
			c-0.06-0.1-0.13-0.16-0.23-0.2c-0.1-0.04-0.19-0.03-0.29,0.03c-0.1,0.06-0.16,0.14-0.17,0.24c-0.01,0.1,0.01,0.2,0.07,0.3
			L22.41,26.07z M21.8,26.17c-0.13-0.22-0.16-0.44-0.11-0.67c0.06-0.23,0.21-0.42,0.47-0.57c0.26-0.15,0.5-0.19,0.72-0.13
			c0.23,0.06,0.41,0.2,0.53,0.42l0.12,0.2c0.13,0.22,0.17,0.45,0.11,0.67c-0.06,0.23-0.21,0.42-0.47,0.56
			c-0.26,0.15-0.5,0.19-0.73,0.13c-0.23-0.06-0.41-0.2-0.54-0.42L21.8,26.17z M19.41,25.02c0.06,0.1,0.13,0.17,0.23,0.2
			c0.09,0.03,0.19,0.02,0.29-0.04c0.1-0.06,0.16-0.14,0.17-0.23c0.01-0.1-0.01-0.2-0.07-0.3l-0.12-0.2c-0.06-0.1-0.14-0.17-0.23-0.2
			c-0.1-0.04-0.19-0.03-0.29,0.03c-0.1,0.06-0.16,0.14-0.17,0.24c-0.01,0.1,0.01,0.2,0.07,0.3L19.41,25.02z M18.8,25.12
			c-0.13-0.22-0.16-0.45-0.11-0.67c0.06-0.23,0.21-0.42,0.46-0.57c0.26-0.15,0.5-0.19,0.73-0.13c0.23,0.06,0.4,0.21,0.53,0.43
			l0.12,0.2c0.13,0.22,0.16,0.44,0.11,0.67c-0.06,0.23-0.21,0.42-0.47,0.56c-0.26,0.15-0.5,0.19-0.73,0.13
			c-0.23-0.06-0.41-0.2-0.53-0.42L18.8,25.12z M17.89,25.89c-0.04-0.34-0.12-0.58-0.24-0.72c-0.12-0.15-0.28-0.21-0.47-0.18
			c-0.19,0.02-0.33,0.12-0.41,0.29c-0.08,0.17-0.1,0.42-0.06,0.76l0.13,1.11c0.04,0.34,0.12,0.59,0.24,0.73
			c0.12,0.14,0.28,0.21,0.47,0.18c0.19-0.02,0.33-0.12,0.41-0.29c0.08-0.17,0.1-0.42,0.06-0.77L17.89,25.89z M18.87,26.82
			c0.07,0.57-0.01,1.01-0.24,1.33c-0.22,0.32-0.56,0.51-1,0.56c-0.45,0.05-0.82-0.05-1.11-0.31c-0.3-0.26-0.48-0.68-0.54-1.24
			l-0.11-0.94c-0.07-0.56,0.01-1.01,0.24-1.33c0.22-0.33,0.56-0.51,1-0.57c0.44-0.05,0.81,0.05,1.11,0.32
			c0.3,0.26,0.48,0.68,0.54,1.24L18.87,26.82z M14.45,25.95c0.08-0.33,0.08-0.59,0.02-0.76c-0.06-0.18-0.19-0.29-0.38-0.33
			c-0.19-0.04-0.35,0-0.49,0.13c-0.13,0.13-0.24,0.36-0.32,0.7l-0.25,1.09c-0.08,0.34-0.09,0.59-0.02,0.77
			c0.06,0.18,0.19,0.29,0.38,0.33c0.19,0.04,0.35,0,0.48-0.13c0.13-0.13,0.24-0.36,0.32-0.7L14.45,25.95z M15.05,27.16
			c-0.13,0.55-0.35,0.95-0.68,1.17c-0.32,0.23-0.7,0.29-1.13,0.19c-0.44-0.1-0.75-0.33-0.94-0.67c-0.19-0.35-0.22-0.8-0.09-1.35
			l0.22-0.92c0.13-0.55,0.36-0.94,0.68-1.17c0.32-0.23,0.7-0.29,1.14-0.19c0.43,0.1,0.75,0.33,0.93,0.68
			c0.19,0.35,0.22,0.8,0.09,1.35L15.05,27.16z M9.63,27.08L8.9,26.61l1.93-2.97l-0.73-0.48l0.33-0.51l1.54,0.82L9.63,27.08z"/>
	</g>
</g>
</svg>
